<?xml version="1.0" encoding="UTF-8"?>
<!DOCTYPE svg PUBLIC "-//W3C//DTD SVG 1.1//EN" "http://www.w3.org/Graphics/SVG/1.1/DTD/svg11.dtd">
<!-- Creator: CorelDRAW X7 -->
<svg xmlns="http://www.w3.org/2000/svg" xml:space="preserve" width="70mm" height="50mm" version="1.1" style="shape-rendering:geometricPrecision; text-rendering:geometricPrecision; image-rendering:optimizeQuality; fill-rule:evenodd; clip-rule:evenodd"
viewBox="0 0 7000 5000"
 xmlns:xlink="http://www.w3.org/1999/xlink">
 <defs>
  <style type="text/css">
   <![CDATA[
    .str0 {stroke:#26BCEF;stroke-width:100}
    .fil1 {fill:#4A81C2}
    .fil0 {fill:#00A6D6}
    .fil2 {fill:#FEFEFE;fill-rule:nonzero}
   ]]>
  </style>
 </defs>
 <g id="Слой_x0020_1">
  <metadata id="CorelCorpID_0Corel-Layer"/>
  <g id="_934433104704">
   <path class="fil0 str0" d="M749 148l5502 0c247,0 450,203 450,451l0 3802c0,248 -203,451 -450,451l-5502 0c-247,0 -450,-203 -450,-451l0 -3802c0,-248 203,-451 450,-451z"/>
   <path class="fil1" d="M3500 945c859,0 1555,696 1555,1555 0,859 -696,1555 -1555,1555 -859,0 -1555,-696 -1555,-1555 0,-859 696,-1555 1555,-1555z"/>
   <path class="fil2" d="M3300 2036l0 209 -153 0 0 254 153 0 0 758 313 0 0 -757 210 0c0,0 20,-123 30,-256l-239 0 0 -174c0,-26 34,-61 68,-61l171 0 0 -266 -232 0c-329,0 -321,255 -321,293z"/>
  </g>
 </g>
</svg>
