<?xml version="1.0" encoding="UTF-8"?>
<!DOCTYPE svg PUBLIC "-//W3C//DTD SVG 1.1//EN" "http://www.w3.org/Graphics/SVG/1.1/DTD/svg11.dtd">
<!-- Creator: CorelDRAW X7 -->
<svg xmlns="http://www.w3.org/2000/svg" xml:space="preserve" width="70mm" height="50mm" version="1.1" style="shape-rendering:geometricPrecision; text-rendering:geometricPrecision; image-rendering:optimizeQuality; fill-rule:evenodd; clip-rule:evenodd"
viewBox="0 0 7000 5000"
 xmlns:xlink="http://www.w3.org/1999/xlink">
 <defs>
  <style type="text/css">
   <![CDATA[
    .fil1 {fill:#00A6D6}
    .fil0 {fill:url(#id0)}
   ]]>
  </style>
  <radialGradient id="id0" gradientUnits="userSpaceOnUse" gradientTransform="matrix(1 -0 -0 0.734692 0 663)" cx="3500" cy="2500" r="3200.7" fx="3500" fy="2500">
   <stop offset="0" style="stop-opacity:1; stop-color:#FEFEFE"/>
   <stop offset="1" style="stop-opacity:1; stop-color:#EBECEC"/>
  </radialGradient>
 </defs>
 <g id="Слой_x0020_1">
  <metadata id="CorelCorpID_0Corel-Layer"/>
  <g id="_934433171520">
   <path class="fil0" d="M6701 4401l0 -3802c0,-248 -203,-451 -450,-451l-5502 0c-247,0 -450,203 -450,451l0 3802c0,248 203,451 450,451l5502 0c247,0 450,-203 450,-451z"/>
   <path class="fil1" d="M3418 2832c-129,-13 -246,-44 -346,-120 -12,-9 -25,-19 -37,-29 -43,-41 -48,-88 -13,-136 29,-42 79,-53 131,-29 10,5 19,11 28,17 187,124 442,128 629,5 19,-14 38,-25 61,-31 45,-11 87,5 110,43 28,44 27,86 -6,120 -52,51 -114,89 -183,115 -65,25 -137,37 -208,45 11,12 16,17 23,24 96,94 192,187 288,282 33,32 40,72 22,109 -20,41 -64,68 -107,65 -27,-2 -49,-15 -68,-33 -72,-72 -146,-141 -217,-214 -21,-21 -31,-17 -49,1 -73,74 -147,146 -222,217 -33,32 -73,38 -112,20 -41,-20 -67,-61 -65,-102 1,-28 15,-49 35,-68 95,-93 190,-186 285,-278 6,-7 12,-13 21,-23z"/>
   <path class="fil1" d="M3497 2510c-231,-1 -420,-187 -419,-413 1,-227 191,-411 424,-410 233,0 421,187 420,417 -2,225 -192,407 -425,406zm209 -412c0,-112 -91,-201 -206,-201 -115,0 -208,91 -207,203 1,112 93,200 208,200 115,0 206,-90 205,-202z"/>
  </g>
 </g>
</svg>
