<?xml version="1.0" encoding="UTF-8"?>
<!DOCTYPE svg PUBLIC "-//W3C//DTD SVG 1.1//EN" "http://www.w3.org/Graphics/SVG/1.1/DTD/svg11.dtd">
<!-- Creator: CorelDRAW X7 -->
<svg xmlns="http://www.w3.org/2000/svg" xml:space="preserve" width="70mm" height="50mm" version="1.1" style="shape-rendering:geometricPrecision; text-rendering:geometricPrecision; image-rendering:optimizeQuality; fill-rule:evenodd; clip-rule:evenodd"
viewBox="0 0 7000 5000"
 xmlns:xlink="http://www.w3.org/1999/xlink">
 <defs>
  <style type="text/css">
   <![CDATA[
    .str0 {stroke:#26BCEF;stroke-width:100}
    .fil1 {fill:#45BEDE}
    .fil0 {fill:#00A6D6}
    .fil2 {fill:#FEFEFE;fill-rule:nonzero}
   ]]>
  </style>
 </defs>
 <g id="Слой_x0020_1">
  <metadata id="CorelCorpID_0Corel-Layer"/>
  <g id="_934433127456">
   <path class="fil0 str0" d="M749 148l5502 0c247,0 450,203 450,451l0 3802c0,248 -203,451 -450,451l-5502 0c-247,0 -450,-203 -450,-451l0 -3802c0,-248 203,-451 450,-451z"/>
   <path class="fil1" d="M3500 945c859,0 1555,696 1555,1555 0,859 -696,1555 -1555,1555 -859,0 -1555,-696 -1555,-1555 0,-859 696,-1555 1555,-1555z"/>
   <path class="fil2" d="M4271 2651c9,-49 14,-99 14,-151 0,-434 -351,-785 -785,-785 -52,0 -102,5 -151,14 -67,-39 -145,-62 -228,-62 -251,0 -454,203 -454,454 0,83 23,161 62,228 -9,49 -14,99 -14,151 0,434 351,785 785,785 52,0 102,-5 151,-14 67,39 145,62 228,62 251,0 454,-203 454,-454 0,-83 -23,-161 -62,-228zm-756 388c-279,0 -419,-104 -462,-236 -42,-131 51,-169 81,-172 29,-2 92,5 110,59 19,57 80,169 215,183 134,13 222,-48 249,-113 27,-64 -21,-153 -228,-182 -207,-30 -421,-121 -421,-328 0,-206 236,-289 461,-289 226,0 340,127 365,177 31,62 21,164 -54,182 -77,19 -118,-24 -174,-129 -58,-108 -265,-80 -335,-18 -70,61 -51,150 239,206 289,57 397,161 397,325 0,164 -164,335 -443,335z"/>
  </g>
 </g>
</svg>
