<?xml version="1.0" encoding="UTF-8"?>
<!DOCTYPE svg PUBLIC "-//W3C//DTD SVG 1.1//EN" "http://www.w3.org/Graphics/SVG/1.1/DTD/svg11.dtd">
<!-- Creator: CorelDRAW X7 -->
<svg xmlns="http://www.w3.org/2000/svg" xml:space="preserve" width="70mm" height="50mm" version="1.1" style="shape-rendering:geometricPrecision; text-rendering:geometricPrecision; image-rendering:optimizeQuality; fill-rule:evenodd; clip-rule:evenodd"
viewBox="0 0 7000 5000"
 xmlns:xlink="http://www.w3.org/1999/xlink">
 <defs>
  <style type="text/css">
   <![CDATA[
    .str0 {stroke:#26BCEF;stroke-width:100}
    .fil1 {fill:#17ADE4}
    .fil0 {fill:#00A6D6}
    .fil2 {fill:#FEFEFE;fill-rule:nonzero}
   ]]>
  </style>
 </defs>
 <g id="Слой_x0020_1">
  <metadata id="CorelCorpID_0Corel-Layer"/>
  <g id="_934424992608">
   <path class="fil0 str0" d="M749 148l5502 0c247,0 450,203 450,451l0 3802c0,248 -203,451 -450,451l-5502 0c-247,0 -450,-203 -450,-451l0 -3802c0,-248 203,-451 450,-451z"/>
   <path class="fil1" d="M3500 945c859,0 1555,696 1555,1555 0,859 -696,1555 -1555,1555 -859,0 -1555,-696 -1555,-1555 0,-859 696,-1555 1555,-1555z"/>
   <path class="fil2" d="M4019 1906l-1356 528c-44,17 -41,80 4,94l345 101 128 409c14,42 68,55 99,23l178 -182 350 257c43,31 103,8 114,-44l232 -1107c11,-54 -42,-99 -94,-79zm-170 245l-630 557c-6,6 -10,14 -11,22l-24 216c-1,7 -11,8 -13,1l-100 -322c-4,-14 2,-30 15,-39l744 -461c17,-11 34,13 19,26z"/>
  </g>
 </g>
</svg>
