<?xml version="1.0" encoding="UTF-8"?>
<!DOCTYPE svg PUBLIC "-//W3C//DTD SVG 1.1//EN" "http://www.w3.org/Graphics/SVG/1.1/DTD/svg11.dtd">
<!-- Creator: CorelDRAW X7 -->
<svg xmlns="http://www.w3.org/2000/svg" xml:space="preserve" width="70mm" height="50mm" version="1.1" style="shape-rendering:geometricPrecision; text-rendering:geometricPrecision; image-rendering:optimizeQuality; fill-rule:evenodd; clip-rule:evenodd"
viewBox="0 0 7000 5000"
 xmlns:xlink="http://www.w3.org/1999/xlink">
 <defs>
  <style type="text/css">
   <![CDATA[
    .fil1 {fill:#00A6D6;fill-rule:nonzero}
    .fil0 {fill:url(#id0)}
   ]]>
  </style>
  <radialGradient id="id0" gradientUnits="userSpaceOnUse" gradientTransform="matrix(1 -0 -0 0.734692 0 663)" cx="3500" cy="2500" r="3200.7" fx="3500" fy="2500">
   <stop offset="0" style="stop-opacity:1; stop-color:#FEFEFE"/>
   <stop offset="1" style="stop-opacity:1; stop-color:#EBECEC"/>
  </radialGradient>
 </defs>
 <g id="Слой_x0020_1">
  <metadata id="CorelCorpID_0Corel-Layer"/>
  <g id="_934425358992">
   <path class="fil0" d="M6251 148l-5502 0c-247,0 -450,203 -450,451l0 3802c0,248 203,451 450,451l5502 0c247,0 450,-203 450,-451l0 -3802c0,-248 -203,-451 -450,-451z"/>
   <path class="fil1" d="M4304 2099l0 -2c-41,-164 -224,-340 -392,-377l-2 0c-272,-52 -548,-52 -820,0l-2 0c-168,37 -351,213 -392,377l0 2c-50,229 -50,462 0,691l0 2c39,157 209,326 371,372l0 183c0,66 80,99 126,51l186 -193c40,2 81,4 121,4 137,0 274,-13 410,-39l2 -1c168,-36 351,-213 392,-377l0 -2c50,-229 50,-462 0,-691zm-147 658c-27,107 -166,240 -276,265 -145,27 -291,39 -436,35 -3,0 -6,1 -8,3 -21,22 -136,139 -136,139l-144 149c-11,11 -29,3 -29,-12l0 -304c0,-5 -4,-9 -9,-10 0,0 0,0 0,0 -110,-25 -249,-158 -276,-265 -45,-207 -45,-417 0,-625 27,-107 166,-240 276,-265 253,-48 509,-48 762,0 110,25 249,158 276,265 46,208 46,418 0,625z"/>
   <path class="fil1" d="M3740 2897c-17,-5 -33,-8 -48,-15 -156,-64 -299,-148 -413,-275 -64,-73 -115,-155 -157,-242 -21,-41 -38,-84 -55,-127 -16,-38 7,-78 32,-108 23,-27 53,-48 85,-63 25,-12 50,-6 68,16 40,46 76,94 106,148 18,32 13,72 -20,95 -8,5 -15,12 -23,18 -6,5 -12,11 -17,18 -8,13 -8,29 -3,43 40,112 109,198 221,245 18,8 36,16 57,14 34,-4 45,-42 70,-62 23,-19 54,-20 79,-4 26,17 51,34 75,52 24,17 48,34 71,53 21,19 29,44 16,69 -22,47 -54,86 -100,111 -13,7 -29,10 -44,14 -17,-5 15,-4 0,0z"/>
   <path class="fil1" d="M3500 2013c204,6 372,141 407,342 7,35 9,70 11,105 2,14 -7,28 -23,28 -16,1 -23,-13 -24,-28 -2,-29 -4,-58 -8,-87 -21,-151 -142,-277 -293,-304 -23,-4 -46,-5 -69,-8 -15,-1 -34,-2 -37,-20 -3,-15 10,-27 25,-28 4,0 7,0 11,0 204,6 -4,0 0,0z"/>
   <path class="fil1" d="M3810 2414c0,3 0,9 -2,15 -5,20 -36,23 -44,2 -2,-6 -2,-13 -2,-20 0,-43 -9,-86 -31,-124 -23,-38 -57,-71 -97,-90 -24,-12 -50,-20 -77,-24 -11,-2 -23,-3 -35,-5 -14,-2 -22,-11 -21,-25 1,-13 10,-22 25,-21 46,2 91,13 133,35 85,44 133,115 147,209 1,5 2,9 2,13 1,11 1,21 2,35 0,3 -1,-14 0,0z"/>
   <path class="fil1" d="M3683 2409c-17,1 -26,-9 -28,-24 -1,-11 -2,-22 -4,-33 -6,-21 -17,-40 -34,-53 -8,-6 -18,-10 -28,-13 -12,-4 -25,-3 -38,-6 -13,-3 -21,-14 -19,-27 2,-11 14,-20 26,-20 79,6 136,47 144,140 0,7 1,13 0,20 -3,10 -11,16 -19,16 -17,1 8,0 0,0z"/>
   <path class="fil1" d="M3740 2897c15,-4 -17,-5 0,0z"/>
   <path class="fil1" d="M3500 2013c1,0 1,0 1,0 11,0 195,5 -1,0z"/>
   <path class="fil1" d="M3810 2414c-1,-14 0,3 0,0z"/>
   <path class="fil1" d="M3683 2409c1,0 1,0 1,0 -1,0 -2,0 -3,0 1,0 2,0 2,0z"/>
   <path class="fil1" d="M3683 2409c0,0 -1,0 -2,0 -4,0 -7,1 2,0z"/>
   <path class="fil1" d="M3684 2409c0,0 0,0 -1,0 2,0 2,0 1,0z"/>
  </g>
 </g>
</svg>
