<?xml version="1.0" encoding="UTF-8"?>
<!DOCTYPE svg PUBLIC "-//W3C//DTD SVG 1.1//EN" "http://www.w3.org/Graphics/SVG/1.1/DTD/svg11.dtd">
<!-- Creator: CorelDRAW X7 -->
<svg xmlns="http://www.w3.org/2000/svg" xml:space="preserve" width="70mm" height="50mm" version="1.1" style="shape-rendering:geometricPrecision; text-rendering:geometricPrecision; image-rendering:optimizeQuality; fill-rule:evenodd; clip-rule:evenodd"
viewBox="0 0 7000 5000"
 xmlns:xlink="http://www.w3.org/1999/xlink">
 <defs>
  <style type="text/css">
   <![CDATA[
    .fil1 {fill:#00A6D6;fill-rule:nonzero}
    .fil0 {fill:url(#id0)}
   ]]>
  </style>
  <radialGradient id="id0" gradientUnits="userSpaceOnUse" gradientTransform="matrix(1 -0 -0 0.734692 0 663)" cx="3500" cy="2500" r="3200.7" fx="3500" fy="2500">
   <stop offset="0" style="stop-opacity:1; stop-color:#FEFEFE"/>
   <stop offset="1" style="stop-opacity:1; stop-color:#EBECEC"/>
  </radialGradient>
 </defs>
 <g id="Слой_x0020_1">
  <metadata id="CorelCorpID_0Corel-Layer"/>
  <g id="_970529439936">
   <path class="fil0" d="M749 4852l5502 0c247,0 450,-203 450,-451l0 -3802c0,-248 -203,-451 -450,-451l-5502 0 0 0c-247,0 -450,203 -450,451l0 3802c0,248 203,451 450,451z"/>
   <path class="fil1" d="M4146 2668c61,61 126,117 182,184 24,29 47,60 65,94 25,48 2,102 -41,105l-271 0c-70,5 -126,-23 -173,-70 -37,-39 -72,-79 -108,-119 -15,-16 -30,-31 -49,-43 -37,-24 -69,-17 -90,22 -22,39 -27,82 -29,126 -3,64 -22,81 -86,84 -137,6 -267,-15 -388,-84 -106,-61 -189,-147 -261,-244 -140,-190 -247,-398 -343,-612 -22,-48 -6,-74 47,-75 89,-2 177,-2 266,0 36,0 59,21 73,55 48,117 107,229 180,333 20,28 40,55 68,75 31,21 55,14 70,-21 9,-22 14,-46 16,-70 7,-82 8,-163 -5,-245 -7,-51 -36,-84 -87,-93 -26,-5 -22,-15 -9,-30 22,-25 42,-41 83,-41l306 0c48,10 59,31 66,80l0 340c0,19 9,74 43,87 27,9 45,-13 61,-30 74,-78 126,-170 173,-265 21,-42 38,-86 56,-129 13,-32 33,-48 69,-47l295 0c9,0 17,0 26,1 50,9 63,30 48,79 -24,76 -71,139 -117,203 -50,68 -102,134 -151,202 -45,63 -41,94 15,148z"/>
  </g>
 </g>
</svg>
