<?xml version="1.0" encoding="UTF-8"?>
<!DOCTYPE svg PUBLIC "-//W3C//DTD SVG 1.1//EN" "http://www.w3.org/Graphics/SVG/1.1/DTD/svg11.dtd">
<!-- Creator: CorelDRAW X7 -->
<svg xmlns="http://www.w3.org/2000/svg" xml:space="preserve" width="70mm" height="102mm" version="1.1" style="shape-rendering:geometricPrecision; text-rendering:geometricPrecision; image-rendering:optimizeQuality; fill-rule:evenodd; clip-rule:evenodd"
viewBox="0 0 7000 10200"
 xmlns:xlink="http://www.w3.org/1999/xlink">
 <defs>
  <style type="text/css">
   <![CDATA[
    .fil1 {fill:#00A6D6;fill-rule:nonzero}
    .fil0 {fill:url(#id0)}
   ]]>
  </style>
  <radialGradient id="id0" gradientUnits="userSpaceOnUse" gradientTransform="matrix(0.646253 -0 -0 0.999999 1238 0)" cx="3500" cy="5101.23" r="4952.7" fx="3500" fy="5101.23">
   <stop offset="0" style="stop-opacity:1; stop-color:#FEFEFE"/>
   <stop offset="1" style="stop-opacity:1; stop-color:#EBECEC"/>
  </radialGradient>
 </defs>
 <g id="Слой_x0020_1">
  <metadata id="CorelCorpID_0Corel-Layer"/>
  <path class="fil0" d="M748 10054l5502 0c247,0 451,-193 451,-440l0 -9000c0,-248 -202,-465 -449,-465l-5485 0c-30,0 -100,19 -135,30 -188,64 -333,228 -333,435l0 9000c0,247 202,440 449,440z"/>
  <path class="fil1" d="M3518 5004c-253,0 -457,205 -457,458 0,253 204,457 457,457 252,0 457,-204 457,-457 0,-253 -205,-458 -457,-458zm920 -2895c130,0 235,106 235,237l0 232c0,313 -120,608 -337,829 -153,157 -348,266 -561,316l-21 5 0 601 21 5c213,49 407,158 562,316 216,221 336,515 336,828l0 233c0,130 -105,237 -235,237 -131,0 -237,-107 -237,-237l0 -233c0,-187 -71,-364 -202,-497 -128,-131 -300,-204 -481,-204 -181,0 -353,73 -482,204 -130,133 -201,310 -201,497l0 233c0,130 -106,237 -236,237 -130,0 -237,-107 -237,-237l0 -233c0,-312 120,-607 338,-828 153,-158 347,-267 560,-316l22 -5 0 -601 -22 -5c-213,-50 -407,-159 -560,-316 -218,-222 -338,-516 -338,-829l0 -232c0,-131 107,-237 237,-237 130,0 236,106 236,237l0 232c0,188 71,365 201,498 129,131 301,203 482,204 181,-1 352,-73 481,-204 131,-133 202,-310 202,-498l0 -232c0,-131 106,-237 237,-237z"/>
  <path class="fil1" d="M2315 6875c-52,-29 -118,-12 -148,40l-271 470 -271 -470c-30,-52 -96,-69 -147,-40 -52,30 -69,97 -39,148l349 606 0 338c0,59 49,108 108,108 60,0 108,-49 108,-108l0 -338 350 -606c30,-51 13,-118 -39,-148zm2159 -14l-714 0c-60,0 -108,49 -108,109 0,59 48,107 108,107l248 0 0 887c0,59 48,108 108,108 30,0 57,-12 76,-32 22,-20 33,-48 33,-76l-1 -887 250 0c60,0 108,-48 108,-107 0,-60 -48,-109 -108,-109zm-1124 617c0,-274 -107,-413 -317,-414 -293,0 -337,258 -338,411 -1,125 29,226 85,293 56,66 140,101 250,101l2 0c234,0 318,-202 318,-391zm222 0c0,305 -167,613 -540,613l-2 0c-177,0 -323,-62 -421,-180 -89,-108 -137,-258 -136,-437 1,-384 220,-632 559,-632 338,1 540,239 540,636zm1632 118l-147 -354 -146 354 293 0zm364 332c22,53 -3,115 -57,138 -12,5 -26,8 -40,8 -43,0 -81,-26 -98,-65l-83 -203 -466 0 -83 203c-22,52 -85,78 -138,57 -53,-23 -79,-85 -57,-138l411 -996c25,-59 68,-72 100,-72 45,0 81,25 100,73l411 995z"/>
 </g>
</svg>
