<?xml version="1.0" encoding="UTF-8"?>
<!DOCTYPE svg PUBLIC "-//W3C//DTD SVG 1.1//EN" "http://www.w3.org/Graphics/SVG/1.1/DTD/svg11.dtd">
<!-- Creator: CorelDRAW X7 -->
<svg xmlns="http://www.w3.org/2000/svg" xml:space="preserve" width="70mm" height="110mm" version="1.1" style="shape-rendering:geometricPrecision; text-rendering:geometricPrecision; image-rendering:optimizeQuality; fill-rule:evenodd; clip-rule:evenodd"
viewBox="0 0 7000 11000"
 xmlns:xlink="http://www.w3.org/1999/xlink">
 <defs>
  <style type="text/css">
   <![CDATA[
    .str0 {stroke:#26BCEF;stroke-width:100}
    .fil0 {fill:#00A6D6}
    .fil1 {fill:#FEFEFE;fill-rule:nonzero}
   ]]>
  </style>
 </defs>
 <g id="Слой_x0020_1">
  <metadata id="CorelCorpID_0Corel-Layer"/>
  <g id="_934433130496">
   <path class="fil0 str0" d="M749 485l5502 0c247,0 450,203 450,450l0 9127c0,248 -203,450 -450,450l-5502 0c-247,0 -450,-202 -450,-450l0 -9127c0,-247 203,-450 450,-450z"/>
   <path class="fil1" d="M3518 5403c-253,0 -457,205 -457,458 0,252 204,457 457,457 252,0 457,-205 457,-457 0,-253 -205,-458 -457,-458zm920 -2895c130,0 235,106 235,236l0 233c0,313 -120,607 -337,829 -153,157 -348,266 -561,316l-21 5 0 601 21 4c213,49 407,159 562,316 216,222 336,516 336,829l0 233c0,130 -105,236 -235,236 -131,0 -237,-106 -237,-236l0 -233c0,-188 -71,-364 -202,-497 -128,-131 -300,-204 -481,-205 -181,1 -353,74 -482,205 -130,133 -201,309 -201,497l0 233c0,130 -106,236 -236,236 -130,0 -237,-106 -237,-236l0 -233c0,-312 120,-607 338,-829 153,-157 347,-267 560,-316l22 -4 0 -601 -22 -5c-213,-50 -407,-159 -560,-316 -218,-222 -338,-517 -338,-829l0 -233c0,-130 107,-236 237,-236 130,0 236,106 236,236l0 233c0,187 71,364 201,498 129,130 301,203 482,203 181,0 352,-73 481,-203 131,-134 202,-311 202,-498l0 -233c0,-130 106,-236 237,-236z"/>
   <path class="fil1" d="M2315 7274c-52,-30 -118,-12 -148,40l-271 469 -271 -469c-30,-52 -96,-70 -147,-40 -52,30 -69,96 -39,148l349 605 0 339c0,59 49,108 108,108 60,0 108,-49 108,-108l0 -339 350 -605c30,-52 13,-118 -39,-148zm2159 -14l-714 0c-60,0 -108,48 -108,108 0,59 48,108 108,108l248 0 0 886c0,60 48,108 108,108 30,0 57,-11 76,-31 22,-21 33,-48 33,-77l-1 -886 250 0c60,0 108,-49 108,-108 0,-60 -48,-108 -108,-108zm-1124 617c0,-274 -107,-413 -317,-414 -293,0 -337,258 -338,410 -1,126 29,227 85,294 56,66 140,100 250,101l2 0c234,0 318,-202 318,-391zm222 0c0,305 -167,613 -540,613l-2 0c-177,0 -323,-63 -421,-181 -89,-108 -137,-258 -136,-436 1,-384 220,-633 559,-633 338,2 540,239 540,637zm1632 118l-147 -355 -146 355 293 0zm364 331c22,54 -3,116 -57,138 -12,6 -26,8 -40,8 -43,0 -81,-25 -98,-65l-83 -202 -466 0 -83 202c-22,53 -85,79 -138,57 -53,-22 -79,-85 -57,-138l411 -995c25,-59 68,-72 100,-72 44,0 81,25 100,72l411 995z"/>
  </g>
 </g>
</svg>
